<svg width="261" height="262" viewBox="0 0 261 262" fill="none" xmlns="http://www.w3.org/2000/svg">
<g clip-path="url(#clip0_1705_2713)" filter="url(#filter0_b_1705_2713)">
<g filter="url(#filter1_b_1705_2713)">
<path d="M211.122 166.444C210.339 153.237 203.242 141.885 192.943 135.168C202.248 130.104 209.514 121.352 212.404 110.27C217.961 88.9366 205.176 67.056 183.853 61.3994C170.638 57.8947 157.246 61.4447 147.649 69.7285C145.102 60.5898 139.324 52.3011 130.725 46.7539C112.159 34.7819 87.4848 40.1095 75.6134 58.6516C68.2254 70.1889 67.5343 84.1218 72.5367 95.8879C62.5024 94.9645 52.1332 97.8187 43.7338 104.69C26.7042 118.624 24.2358 143.797 38.2256 160.913C46.8548 171.474 59.7298 176.494 72.3258 175.523C68.3438 184.819 67.8706 195.639 71.8505 205.832C79.8886 226.416 103.04 236.648 123.556 228.681C136.186 223.776 144.876 213.119 147.812 200.849C155.03 206.15 164.045 209.072 173.659 208.541C195.651 207.329 212.426 188.484 211.122 166.444Z" fill="white" fill-opacity="0.25"/>
</g>
<g filter="url(#filter2_bd_1705_2713)">
<path d="M96.9608 152.467L97.765 153.62L120.575 143.078L127.317 168.161L128.693 168.059L130.441 142.414L154.968 149.745L155.539 148.49L134.477 133.387L152.261 115.634L151.457 114.481L128.647 125.024L121.765 100.037L120.39 100.139L118.781 125.687L94.1153 118.453L93.5442 119.708L114.745 134.714L96.9608 152.467Z" fill="#FFFCEB" fill-opacity="0.2" shape-rendering="crispEdges"/>
</g>
</g>
<defs>
<filter id="filter0_b_1705_2713" x="-26.3594" y="-26.1413" width="314.094" height="314.59" filterUnits="userSpaceOnUse" color-interpolation-filters="sRGB">
<feFlood flood-opacity="0" result="BackgroundImageFix"/>
<feGaussianBlur in="BackgroundImageFix" stdDeviation="13.5"/>
<feComposite in2="SourceAlpha" operator="in" result="effect1_backgroundBlur_1705_2713"/>
<feBlend mode="normal" in="SourceGraphic" in2="effect1_backgroundBlur_1705_2713" result="shape"/>
</filter>
<filter id="filter1_b_1705_2713" x="25.1562" y="36.3595" width="192.547" height="199.026" filterUnits="userSpaceOnUse" color-interpolation-filters="sRGB">
<feFlood flood-opacity="0" result="BackgroundImageFix"/>
<feGaussianBlur in="BackgroundImageFix" stdDeviation="2"/>
<feComposite in2="SourceAlpha" operator="in" result="effect1_backgroundBlur_1705_2713"/>
<feBlend mode="normal" in="SourceGraphic" in2="effect1_backgroundBlur_1705_2713" result="shape"/>
</filter>
<filter id="filter2_bd_1705_2713" x="57.543" y="64.0371" width="133.996" height="140.124" filterUnits="userSpaceOnUse" color-interpolation-filters="sRGB">
<feFlood flood-opacity="0" result="BackgroundImageFix"/>
<feGaussianBlur in="BackgroundImageFix" stdDeviation="18"/>
<feComposite in2="SourceAlpha" operator="in" result="effect1_backgroundBlur_1705_2713"/>
<feColorMatrix in="SourceAlpha" type="matrix" values="0 0 0 0 0 0 0 0 0 0 0 0 0 0 0 0 0 0 127 0" result="hardAlpha"/>
<feOffset dy="4"/>
<feGaussianBlur stdDeviation="5"/>
<feComposite in2="hardAlpha" operator="out"/>
<feColorMatrix type="matrix" values="0 0 0 0 0.111562 0 0 0 0 0.225 0 0 0 0 0.197775 0 0 0 0.15 0"/>
<feBlend mode="normal" in2="effect1_backgroundBlur_1705_2713" result="effect2_dropShadow_1705_2713"/>
<feBlend mode="normal" in="SourceGraphic" in2="effect2_dropShadow_1705_2713" result="shape"/>
</filter>
<clipPath id="clip0_1705_2713">
<rect width="188" height="186" fill="white" transform="translate(153.23 0.858704) rotate(55.122)"/>
</clipPath>
</defs>
</svg>
