<svg width="250" height="261" viewBox="0 0 250 261" fill="none" xmlns="http://www.w3.org/2000/svg">
<g filter="url(#filter0_b_1705_2855)">
<path d="M190.203 77.429L189.317 79.3215L191.404 79.2075C207.756 78.3141 224.348 84.8814 235.648 98.3723C254.502 120.887 251.467 154.134 228.899 172.639L228.899 172.639C219.03 180.735 207.068 184.675 195.14 184.668L193.246 184.667L193.989 186.409C200.565 201.811 199.703 219.987 190.073 235.106C174.432 259.667 141.546 266.886 116.625 251.193C104.286 243.423 96.2247 231.5 93.1239 218.456L92.6499 216.462L91.0941 217.796C78.3808 228.697 60.6231 233.42 43.0157 228.9L43.0155 228.9C14.4676 221.574 -2.81616 192.755 4.37114 164.558C7.91723 150.649 16.7495 139.486 28.2213 132.614L30.0262 131.533L28.2135 130.465C13.5305 121.813 3.23928 106.392 2.00954 88.2949L2.00953 88.2948C0.0310368 59.217 22.2073 34.2057 51.5696 32.4491C65.1718 31.6382 77.9238 35.9647 87.8928 43.7317L89.4448 44.9409L89.88 43.0221C93.5898 26.6666 105.108 12.3934 122.027 5.78777C149.338 -4.87388 180.362 8.48433 191.311 35.6169C196.995 49.7111 196.15 64.7384 190.203 77.429Z" stroke="white" stroke-opacity="0.7" stroke-width="2.5"/>
</g>
<defs>
<filter id="filter0_b_1705_2855" x="-3.36328" y="-3.13254" width="256.637" height="267.876" filterUnits="userSpaceOnUse" color-interpolation-filters="sRGB">
<feFlood flood-opacity="0" result="BackgroundImageFix"/>
<feGaussianBlur in="BackgroundImageFix" stdDeviation="2"/>
<feComposite in2="SourceAlpha" operator="in" result="effect1_backgroundBlur_1705_2855"/>
<feBlend mode="normal" in="SourceGraphic" in2="effect1_backgroundBlur_1705_2855" result="shape"/>
</filter>
</defs>
</svg>
