<svg width="26" height="26" viewBox="0 0 26 26" fill="none" xmlns="http://www.w3.org/2000/svg">
<g filter="url(#filter0_b_1705_2857)">
<path d="M2.82399 12.6587C1.84827 13.2831 1.075 14.2284 0.682682 15.4074C-0.23851 18.1763 1.29195 21.1846 4.1015 22.1261L2.82399 12.6587ZM19.2821 8.08061L18.874 8.8093L19.7091 8.82483C21.2046 8.85265 22.6722 9.55979 23.6136 10.8589C25.1831 13.0256 24.6917 16.0129 22.5267 17.5365L22.5266 17.5365C21.5783 18.2043 20.4663 18.4822 19.3804 18.4021L18.6224 18.3462L18.8712 19.0644C19.37 20.5043 19.1741 22.1423 18.2043 23.4452L18.2043 23.4452C16.6286 25.5623 13.5921 26.0039 11.4217 24.4114C10.3483 23.6236 9.69262 22.4892 9.49466 21.287L9.36197 20.4812L8.70461 20.9658C7.47953 21.8689 5.83459 22.1798 4.26043 21.652L4.26036 21.652C1.70549 20.7959 0.325183 18.0658 1.15711 15.5652C1.56779 14.3311 2.43978 13.3798 3.52647 12.8333L4.28055 12.4541L3.58562 11.975C2.30312 11.0908 1.46859 9.62384 1.47303 7.97841L1.47303 7.97837C1.47993 5.33755 3.64967 3.21781 6.3331 3.25383C7.57664 3.27079 8.70937 3.7482 9.56727 4.51998L10.1519 5.04589L10.3801 4.29341C10.8215 2.83839 11.9577 1.62324 13.5374 1.13717C16.0913 0.351489 18.8291 1.77161 19.6503 4.30421C20.0762 5.61862 19.903 6.97196 19.2821 8.08061Z" stroke="white" stroke-opacity="0.9"/>
</g>
<defs>
<filter id="filter0_b_1705_2857" x="-3.58594" y="-3.57944" width="32.6172" height="33.4485" filterUnits="userSpaceOnUse" color-interpolation-filters="sRGB">
<feFlood flood-opacity="0" result="BackgroundImageFix"/>
<feGaussianBlur in="BackgroundImageFix" stdDeviation="2"/>
<feComposite in2="SourceAlpha" operator="in" result="effect1_backgroundBlur_1705_2857"/>
<feBlend mode="normal" in="SourceGraphic" in2="effect1_backgroundBlur_1705_2857" result="shape"/>
</filter>
</defs>
</svg>
