<svg width="75" height="75" viewBox="0 0 75 75" fill="none" xmlns="http://www.w3.org/2000/svg">
<circle cx="37.5" cy="37.5" r="36.5" fill="#FFFCEB" fill-opacity="0.2" stroke="white" stroke-width="2"/>
<path d="M26.5996 45V31.0415H36.0164V32.6887H28.4468V37.0115H34.9976V38.6587H28.4468V45H26.5996ZM39.6166 45V31.0415H44.8534C45.9198 31.0415 46.7736 31.1843 47.4147 31.47C48.0622 31.7493 48.5668 32.1841 48.9286 32.7744C49.2968 33.3584 49.4809 33.9709 49.4809 34.6121C49.4809 35.2087 49.319 35.7705 48.9953 36.2974C48.6716 36.8242 48.1828 37.2495 47.529 37.5732C48.3732 37.8208 49.0207 38.2429 49.4714 38.8396C49.9284 39.4363 50.1569 40.1409 50.1569 40.9534C50.1569 41.6072 50.0173 42.2166 49.738 42.7815C49.465 43.3401 49.1254 43.7717 48.7192 44.0764C48.3129 44.3811 47.8019 44.6128 47.1862 44.7715C46.5768 44.9238 45.8278 45 44.9391 45H39.6166ZM41.4638 36.9067H44.4821C45.3009 36.9067 45.8881 36.8528 46.2436 36.7449C46.7133 36.6052 47.0656 36.3735 47.3005 36.0498C47.5417 35.7261 47.6623 35.3198 47.6623 34.8311C47.6623 34.3677 47.5512 33.9614 47.329 33.6123C47.1069 33.2568 46.7895 33.0156 46.3769 32.8887C45.9643 32.7554 45.2565 32.6887 44.2536 32.6887H41.4638V36.9067ZM41.4638 43.3528H44.9391C45.5358 43.3528 45.9548 43.3306 46.196 43.2861C46.6213 43.21 46.9767 43.083 47.2624 42.9053C47.548 42.7275 47.7829 42.4705 47.967 42.134C48.151 41.7913 48.2431 41.3977 48.2431 40.9534C48.2431 40.4329 48.1098 39.9822 47.8432 39.6013C47.5766 39.2141 47.2052 38.9443 46.7292 38.792C46.2594 38.6333 45.5802 38.554 44.6916 38.554H41.4638V43.3528Z" fill="white"/>
</svg>
