<svg width="86" height="32" viewBox="0 0 86 32" fill="none" xmlns="http://www.w3.org/2000/svg">
<path d="M0.83496 14.961L80.5861 14.961C78.8679 14.1908 77.0761 13.1737 75.4388 11.8828C72.062 9.22055 69.2714 5.3294 69.2714 -3.11309e-06L70.8717 -3.18589e-06C70.8717 4.64462 73.282 8.09546 76.4063 10.5587C79.5417 13.0307 83.3247 14.4431 85.835 14.978L85.7351 16L85.835 17.022C83.3247 17.5569 79.5417 18.9693 76.4063 21.4413C73.282 23.9045 70.8717 27.3554 70.8717 32L69.2714 32C69.2714 26.6706 72.062 22.7794 75.4388 20.1171C77.0761 18.8263 78.8679 17.8092 80.5861 17.039L0.83496 17.039L0.83496 14.961Z" fill="#FFFCEB"/>
</svg>
