<svg width="46" height="44" viewBox="0 0 46 44" fill="none" xmlns="http://www.w3.org/2000/svg">
<g filter="url(#filter0_b_1705_2856)">
<path d="M7.51289 7.11481C8.95806 2.73754 13.6905 0.304451 18.0725 1.67828C20.3459 2.39164 22.0754 3.98569 23.0144 5.96501L23.7303 7.47414L24.7224 6.13033C26.2554 4.05385 28.7159 2.69563 31.4832 2.66872C36.0979 2.62452 39.8066 6.29775 39.7879 10.8615L39.7879 10.8618C39.7801 12.8619 39.061 14.7032 37.8638 16.1509L36.895 17.3224L38.3544 17.7481C40.8776 18.4842 42.9844 20.3946 43.8482 23.058L43.8482 23.0581C45.2519 27.3859 42.8427 32.0986 38.4336 33.5619C36.2534 34.2854 34.0033 34.0747 32.1151 33.1529L30.6473 32.4364L30.6766 34.0695C30.7236 36.694 29.5185 39.3181 27.2039 41.0056L27.2038 41.0057C23.4469 43.7456 18.2295 42.9591 15.5448 39.2946C14.2196 37.4856 13.7524 35.3105 14.0688 33.2366L14.3233 31.5677L12.7374 32.1464C10.2121 33.0678 7.31595 32.7763 5.00709 31.1278L5.00701 31.1277C1.30196 28.483 0.485711 23.3168 3.21617 19.5779C4.48197 17.8454 6.28472 16.7286 8.22743 16.2924L9.76191 15.9479L8.79901 14.7045C7.19392 12.6317 6.61934 9.82168 7.51289 7.11481ZM7.51289 7.11481L6.5633 6.8013M7.51289 7.11481L6.5633 6.8013M6.5633 6.8013C5.68361 9.46621 6.0742 12.2259 7.40457 14.435L23.3928 4.58071C22.2756 2.80625 20.5432 1.40541 18.3717 0.724072C13.466 -0.813925 8.17903 1.90743 6.5633 6.8013Z" stroke="white" stroke-opacity="0.8" stroke-width="2"/>
</g>
<defs>
<filter id="filter0_b_1705_2856" x="-3.39844" y="-3.70561" width="52.6484" height="51.3479" filterUnits="userSpaceOnUse" color-interpolation-filters="sRGB">
<feFlood flood-opacity="0" result="BackgroundImageFix"/>
<feGaussianBlur in="BackgroundImageFix" stdDeviation="2"/>
<feComposite in2="SourceAlpha" operator="in" result="effect1_backgroundBlur_1705_2856"/>
<feBlend mode="normal" in="SourceGraphic" in2="effect1_backgroundBlur_1705_2856" result="shape"/>
</filter>
</defs>
</svg>
