<svg width="46" height="44" viewBox="0 0 46 44" fill="none" xmlns="http://www.w3.org/2000/svg">
<g filter="url(#filter0_b_3641_6028)">
<path d="M38.7486 34.5108C43.6671 32.8784 46.3767 27.6121 44.7994 22.7493L38.4336 33.5617M38.7486 34.5108L38.4337 33.5617C38.4337 33.5617 38.4336 33.5617 38.4336 33.5617M38.7486 34.5108C36.6858 35.1953 34.5622 35.1318 32.6748 34.4687L38.7486 34.5108ZM38.4336 33.5617C42.8427 32.0984 45.2519 27.3856 43.8482 23.0578L43.8482 23.0578C42.9844 20.3943 40.8776 18.484 38.3544 17.7479L36.895 17.3222L37.8638 16.1506C39.061 14.7029 39.7801 12.8617 39.7879 10.8615L39.7879 10.8613C39.8066 6.2975 36.0979 2.62427 31.4832 2.66848C28.7159 2.69539 26.2554 4.0536 24.7224 6.13008L23.7303 7.4739L23.0144 5.96476C22.0754 3.98545 20.3459 2.3914 18.0725 1.67803C13.6905 0.304207 8.95806 2.73729 7.51289 7.11456C6.61934 9.82144 7.19392 12.6315 8.79901 14.7042L9.76191 15.9477L8.22743 16.2922C6.28472 16.7284 4.48197 17.8451 3.21617 19.5776C0.485711 23.3165 1.30196 28.4827 5.00701 31.1275L5.00709 31.1276C7.31595 32.776 10.2121 33.0676 12.7374 32.1462L14.3233 31.5675L14.0688 33.2364C13.7524 35.3103 14.2196 37.4853 15.5448 39.2943C18.2295 42.9588 23.4469 43.7453 27.2038 41.0055L27.2039 41.0054C29.5185 39.3178 30.7236 36.6937 30.6766 34.0692L30.6473 32.4362L32.1151 33.1527C34.0033 34.0744 36.2534 34.2851 38.4336 33.5617Z" stroke="white" stroke-opacity="0.8" stroke-width="2"/>
</g>
<defs>
<filter id="filter0_b_3641_6028" x="-3.39844" y="-3.70605" width="52.6484" height="51.3481" filterUnits="userSpaceOnUse" color-interpolation-filters="sRGB">
<feFlood flood-opacity="0" result="BackgroundImageFix"/>
<feGaussianBlur in="BackgroundImageFix" stdDeviation="2"/>
<feComposite in2="SourceAlpha" operator="in" result="effect1_backgroundBlur_3641_6028"/>
<feBlend mode="normal" in="SourceGraphic" in2="effect1_backgroundBlur_3641_6028" result="shape"/>
</filter>
</defs>
</svg>
