<svg width="520" height="198" viewBox="0 0 520 198" fill="none" xmlns="http://www.w3.org/2000/svg">
<path d="M122.776 27.8C113.576 27.8 104.976 29.7333 96.9758 33.6C89.1091 37.3333 82.2425 42.5333 76.3758 49.2C70.6425 55.7333 66.1091 63.6 62.7758 72.8C59.5758 81.8667 57.9758 91.6667 57.9758 102.2C57.9758 111.267 59.5758 118.133 62.7758 122.8C66.1091 127.467 71.1758 129.8 77.9758 129.8C85.7091 129.8 92.4424 127.667 98.1758 123.4C103.909 119 107.909 112.8 110.176 104.8C110.309 104 110.909 103.333 111.976 102.8C113.042 102.267 114.109 101.933 115.176 101.8C116.376 101.533 117.442 101.467 118.376 101.6C119.309 101.733 119.776 102.133 119.776 102.8C115.376 118.267 110.242 131.4 104.376 142.2C98.5091 152.867 92.0424 161.533 84.9758 168.2C77.9091 174.867 70.3091 179.667 62.1758 182.6C54.1758 185.667 45.8424 187.2 37.1758 187.2C31.0424 187.2 25.7091 186.4 21.1758 184.8C16.6424 183.2 12.8424 181 9.77578 178.2C6.84245 175.4 4.64245 172.133 3.17578 168.4C1.57578 164.8 0.775781 160.933 0.775781 156.8C0.775781 151.067 2.10911 145.933 4.77578 141.4C7.30911 136.733 11.7091 132.933 17.9758 130C18.6424 129.733 19.0424 129.933 19.1758 130.6C19.4424 131.133 19.3758 131.667 18.9758 132.2C12.4424 135.8 9.17578 142.4 9.17578 152C9.17578 161.333 11.9758 168.933 17.5758 174.8C23.1758 180.667 31.1758 183.6 41.5758 183.6C55.9758 183.6 68.5091 178.667 79.1758 168.8C89.9758 159.067 98.7091 143.267 105.376 121.4C101.242 124.867 96.5758 127.8 91.3758 130.2C86.1758 132.467 80.3091 133.6 73.7758 133.6C65.2424 133.6 58.8424 131.2 54.5758 126.4C50.3091 121.467 48.1758 114.933 48.1758 106.8C48.1758 97.4667 50.2424 87.8 54.3758 77.8C58.5091 67.6667 64.1758 58.4667 71.3758 50.2C78.7091 41.8 87.2425 34.9333 96.9758 29.6C106.709 24.1333 117.176 21.4 128.376 21.4C134.242 21.4 138.842 22.6667 142.176 25.2C145.642 27.7333 147.376 30.8 147.376 34.4C147.376 35.8667 147.042 37.6 146.376 39.6C145.709 41.6 144.842 43.6667 143.776 45.8C142.709 47.8 141.576 49.8 140.376 51.8C139.176 53.6667 138.109 55.3333 137.176 56.8C136.642 57.0667 136.109 57.0667 135.576 56.8C135.176 56.4 135.042 55.9333 135.176 55.4C137.042 52.4667 138.376 49.8667 139.176 47.6C140.109 45.3333 140.576 42.8667 140.576 40.2C140.576 36.6 138.909 33.6667 135.576 31.4C132.376 29 128.109 27.8 122.776 27.8ZM162.634 107.6C162.634 109.467 161.9 111.2 160.434 112.8C158.967 114.4 156.967 115.867 154.434 117.2C151.9 118.4 148.967 119.533 145.634 120.6C142.434 121.667 139.034 122.667 135.434 123.6C135.3 125.067 135.167 126.533 135.034 128C135.034 129.467 135.034 131.067 135.034 132.8C135.034 136.133 135.767 138.933 137.234 141.2C138.7 143.467 140.767 144.6 143.434 144.6C146.1 144.6 148.567 143.933 150.834 142.6C153.234 141.267 155.367 139.467 157.234 137.2C157.767 136.933 158.167 137 158.434 137.4C158.7 137.8 158.7 138.267 158.434 138.8C156.167 141.867 153.3 144.533 149.834 146.8C146.5 148.933 142.967 150 139.234 150C135.767 150 132.9 148.867 130.634 146.6C128.5 144.333 127.434 141 127.434 136.6C127.434 132.6 128.167 128.4 129.634 124C131.1 119.467 133.034 115.333 135.434 111.6C137.834 107.867 140.567 104.8 143.634 102.4C146.834 100 150.167 98.8 153.634 98.8C156.167 98.8 158.3 99.7333 160.034 101.6C161.767 103.333 162.634 105.333 162.634 107.6ZM149.434 104C146.367 104 143.634 105.333 141.234 108C138.834 110.667 137.1 114.867 136.034 120.6C142.434 119.667 147.1 118.333 150.034 116.6C153.1 114.733 154.634 112.667 154.634 110.4C154.634 108.533 154.167 107 153.234 105.8C152.3 104.6 151.034 104 149.434 104ZM202.845 99.6C203.511 99.8667 203.778 100.267 203.645 100.8C203.511 101.333 202.911 101.667 201.845 101.8C199.711 101.933 197.311 102.067 194.645 102.2C192.111 102.333 189.511 102.533 186.845 102.8C184.178 109.467 181.978 115.867 180.245 122C178.511 128.133 177.645 133.2 177.645 137.2C177.645 141.733 179.378 144 182.845 144C186.311 144 190.111 140.933 194.245 134.8C194.645 134.533 195.045 134.6 195.445 135C195.845 135.267 195.978 135.733 195.845 136.4C194.645 138.267 193.245 140.067 191.645 141.8C190.178 143.4 188.645 144.8 187.045 146C185.445 147.2 183.911 148.2 182.445 149C180.978 149.667 179.778 150 178.845 150C175.911 150 173.711 149.133 172.245 147.4C170.911 145.533 170.245 143.333 170.245 140.8C170.245 136.4 171.178 130.867 173.045 124.2C174.911 117.533 177.245 110.667 180.045 103.6C178.311 103.867 176.645 104.133 175.045 104.4C173.445 104.667 171.911 104.933 170.445 105.2C169.778 105.067 169.578 104.733 169.845 104.2C170.245 103.667 170.845 103.133 171.645 102.6C172.578 102.067 173.645 101.6 174.845 101.2C176.045 100.667 177.178 100.4 178.245 100.4C178.911 100.267 179.445 100.2 179.845 100.2C180.378 100.2 180.911 100.2 181.445 100.2C183.311 96.0667 185.178 92.1333 187.045 88.4C188.911 84.5333 190.778 81 192.645 77.8C193.445 77 194.311 76.3333 195.245 75.8C196.311 75.1333 197.311 74.7333 198.245 74.6C199.178 74.3333 199.911 74.2667 200.445 74.4C200.978 74.4 201.178 74.6 201.045 75C198.778 78.4667 196.511 82.3333 194.245 86.6C192.111 90.8667 190.045 95.2667 188.045 99.8C190.445 99.8 192.845 99.8 195.245 99.8C197.645 99.6667 200.178 99.6 202.845 99.6Z" fill="#47BFD9"/>
<path d="M164.92 129.256C163.152 129.256 161.644 128.71 160.396 127.618C159.2 126.474 158.602 125.044 158.602 123.328C158.602 121.56 159.2 120.13 160.396 119.038C161.644 117.946 163.152 117.4 164.92 117.4C166.688 117.4 168.17 117.946 169.366 119.038C170.562 120.13 171.16 121.56 171.16 123.328C171.16 125.044 170.562 126.474 169.366 127.618C168.17 128.71 166.688 129.256 164.92 129.256ZM155.716 172V171.22L156.808 170.908C157.848 170.596 158.55 170.128 158.914 169.504C159.33 168.88 159.538 168.048 159.538 167.008V142.594C159.538 141.502 159.33 140.696 158.914 140.176C158.55 139.604 157.848 139.214 156.808 139.006L155.716 138.772V137.992L169.99 133.39L170.77 134.17L170.536 145.246V167.086C170.536 168.126 170.718 168.958 171.082 169.582C171.498 170.206 172.2 170.674 173.188 170.986L173.968 171.22V172H155.716ZM178.981 172V171.22L180.073 170.908C181.893 170.388 182.803 169.114 182.803 167.086V142.672C182.803 141.528 182.621 140.696 182.257 140.176C181.893 139.604 181.191 139.214 180.151 139.006L178.981 138.694V137.914L192.319 133.39L193.099 134.17L193.723 138.85C195.543 137.238 197.597 135.912 199.885 134.872C202.173 133.832 204.435 133.312 206.671 133.312C210.103 133.312 212.729 134.248 214.549 136.12C216.421 137.992 217.357 140.852 217.357 144.7V167.164C217.357 169.192 218.345 170.466 220.321 170.986L221.023 171.22V172H202.615V171.22L203.629 170.908C205.449 170.336 206.359 169.062 206.359 167.086V142.204C206.359 138.876 204.695 137.212 201.367 137.212C199.079 137.212 196.583 138.356 193.879 140.644V167.164C193.879 169.192 194.789 170.466 196.609 170.986L197.311 171.22V172H178.981ZM259.001 173.17C255.673 173.17 253.073 172.338 251.201 170.674C249.381 169.01 248.471 166.358 248.471 162.718V136.042H243.089V135.262L244.961 134.95C246.573 134.586 247.951 134.066 249.095 133.39C250.291 132.714 251.461 131.804 252.605 130.66L259.001 123.562H259.781L259.547 134.482H268.283V136.042H259.469V164.122C259.469 165.942 259.859 167.32 260.639 168.256C261.471 169.192 262.511 169.66 263.759 169.66C264.851 169.66 265.813 169.4 266.645 168.88C267.477 168.308 268.309 167.554 269.141 166.618L269.921 167.398C268.881 169.166 267.451 170.57 265.631 171.61C263.811 172.65 261.601 173.17 259.001 173.17ZM293.43 173.17C289.478 173.17 286.046 172.364 283.134 170.752C280.222 169.088 277.96 166.748 276.348 163.732C274.788 160.716 274.008 157.18 274.008 153.124C274.008 149.068 274.84 145.558 276.504 142.594C278.22 139.63 280.534 137.342 283.446 135.73C286.41 134.118 289.738 133.312 293.43 133.312C297.122 133.312 300.424 134.118 303.336 135.73C306.248 137.29 308.536 139.552 310.2 142.516C311.916 145.48 312.774 149.016 312.774 153.124C312.774 157.232 311.968 160.794 310.356 163.81C308.796 166.774 306.56 169.088 303.648 170.752C300.788 172.364 297.382 173.17 293.43 173.17ZM293.43 171.61C295.25 171.61 296.706 171.09 297.798 170.05C298.89 169.01 299.67 167.164 300.138 164.512C300.658 161.86 300.918 158.116 300.918 153.28C300.918 148.392 300.658 144.622 300.138 141.97C299.67 139.318 298.89 137.472 297.798 136.432C296.706 135.392 295.25 134.872 293.43 134.872C291.61 134.872 290.128 135.392 288.984 136.432C287.892 137.472 287.086 139.318 286.566 141.97C286.098 144.622 285.864 148.392 285.864 153.28C285.864 158.116 286.098 161.86 286.566 164.512C287.086 167.164 287.892 169.01 288.984 170.05C290.128 171.09 291.61 171.61 293.43 171.61ZM331.574 173.17C329.546 173.17 327.674 172.78 325.958 172C324.294 171.22 322.968 169.972 321.98 168.256C321.044 166.488 320.602 164.174 320.654 161.314L320.888 141.268C320.888 140.072 320.68 139.214 320.264 138.694C319.848 138.174 319.198 137.81 318.314 137.602L317.378 137.29V136.51L331.34 133.78L332.12 134.56L331.73 145.636V164.434C331.73 166.098 332.198 167.32 333.134 168.1C334.122 168.88 335.344 169.27 336.8 169.27C338.256 169.27 339.556 169.062 340.7 168.646C341.844 168.23 342.988 167.606 344.132 166.774L344.444 141.346C344.444 140.15 344.262 139.318 343.898 138.85C343.534 138.33 342.858 137.966 341.87 137.758L341.09 137.524V136.744L354.74 133.78L355.52 134.56L355.286 145.636V166.774C355.286 167.918 355.442 168.802 355.754 169.426C356.066 170.05 356.742 170.57 357.782 170.986L358.562 171.22V172L344.912 172.78L344.21 168.178C342.494 169.582 340.622 170.778 338.594 171.766C336.618 172.702 334.278 173.17 331.574 173.17ZM382.311 173.17C378.775 173.17 375.551 172.416 372.639 170.908C369.779 169.348 367.491 167.112 365.775 164.2C364.111 161.236 363.279 157.622 363.279 153.358C363.279 149.146 364.189 145.558 366.009 142.594C367.881 139.578 370.351 137.29 373.419 135.73C376.539 134.118 379.945 133.312 383.637 133.312C386.653 133.312 389.201 133.806 391.281 134.794C393.361 135.782 394.947 137.082 396.039 138.694C397.131 140.254 397.677 141.892 397.677 143.608C397.677 145.064 397.235 146.208 396.351 147.04C395.467 147.82 394.323 148.21 392.919 148.21C391.411 148.21 390.189 147.664 389.253 146.572C388.317 145.48 387.771 144.05 387.615 142.282C387.563 141.138 387.589 140.176 387.693 139.396C387.797 138.564 387.797 137.732 387.693 136.9C387.485 136.016 387.147 135.444 386.679 135.184C386.263 134.872 385.665 134.716 384.885 134.716C381.713 134.716 379.243 136.094 377.475 138.85C375.759 141.606 374.901 146 374.901 152.032C374.901 157.284 375.863 161.314 377.787 164.122C379.763 166.878 382.779 168.256 386.835 168.256C389.279 168.256 391.255 167.814 392.763 166.93C394.271 166.046 395.727 164.72 397.131 162.952L397.911 163.576C396.611 166.644 394.609 169.01 391.905 170.674C389.201 172.338 386.003 173.17 382.311 173.17ZM401.628 172V171.22L402.564 170.908C404.436 170.284 405.372 168.984 405.372 167.008V125.356C405.372 124.264 405.19 123.458 404.826 122.938C404.462 122.418 403.76 122.028 402.72 121.768L401.55 121.456V120.676L415.278 117.322L416.526 118.024L416.214 129.022V138.772C418.034 137.264 419.984 135.99 422.064 134.95C424.196 133.858 426.536 133.312 429.084 133.312C432.464 133.312 435.142 134.274 437.118 136.198C439.146 138.122 440.16 141.086 440.16 145.09V167.086C440.16 168.126 440.368 168.958 440.784 169.582C441.2 170.206 441.928 170.674 442.968 170.986L443.592 171.22V172H425.34V171.22L426.276 170.986C428.148 170.362 429.084 169.036 429.084 167.008V142.516C429.084 140.436 428.72 139.006 427.992 138.226C427.316 137.446 426.094 137.056 424.326 137.056C423.182 137.056 421.934 137.29 420.582 137.758C419.23 138.174 417.852 138.928 416.448 140.02V167.164C416.448 169.192 417.384 170.492 419.256 171.064L419.88 171.22V172H401.628Z" fill="#000537"/>
<path d="M505.506 102.54C508.712 102.54 511.312 103.667 513.306 105.92C515.212 108.26 516.166 111.293 516.166 115.02C516.166 119.873 514.736 124.38 511.876 128.54C509.016 132.787 505.462 135.95 501.216 138.03L500.436 136.47C502.256 135.083 503.859 133.307 505.246 131.14C506.632 128.973 507.629 126.287 508.236 123.08L505.506 122.43C502.472 121.737 500.132 120.437 498.486 118.53C496.752 116.71 495.886 114.5 495.886 111.9C495.886 109.127 496.839 106.873 498.746 105.14C500.566 103.407 502.819 102.54 505.506 102.54ZM478.076 102.54C481.282 102.54 483.882 103.667 485.876 105.92C487.782 108.26 488.736 111.293 488.736 115.02C488.736 119.873 487.306 124.38 484.446 128.54C481.586 132.787 478.032 135.95 473.786 138.03L473.006 136.47C474.826 135.083 476.429 133.307 477.816 131.14C479.202 128.973 480.199 126.287 480.806 123.08L478.076 122.43C475.042 121.737 472.702 120.437 471.056 118.53C469.322 116.71 468.456 114.5 468.456 111.9C468.456 109.127 469.409 106.873 471.316 105.14C473.136 103.407 475.389 102.54 478.076 102.54Z" fill="#47BFD9"/>
</svg>
