<svg width="75" height="75" viewBox="0 0 75 75" fill="none" xmlns="http://www.w3.org/2000/svg">
<circle cx="37.5" cy="37.5" r="36.5" fill="#FFFCEB" fill-opacity="0.2" stroke="white" stroke-width="2"/>
<path d="M28.8186 45V31.0415H30.6658V45H28.8186ZM41.7309 39.5251V37.8875L47.6437 37.8779V43.0576C46.736 43.7812 45.7997 44.3271 44.8349 44.6953C43.87 45.0571 42.8798 45.238 41.8642 45.238C40.4931 45.238 39.2458 44.946 38.1222 44.3621C37.005 43.7717 36.1608 42.9211 35.5895 41.8103C35.0182 40.6995 34.7326 39.4585 34.7326 38.0874C34.7326 36.729 35.0151 35.4626 35.58 34.2883C36.1513 33.1077 36.9701 32.2317 38.0365 31.6604C39.1029 31.0891 40.3312 30.8035 41.7214 30.8035C42.7306 30.8035 43.6415 30.9685 44.454 31.2986C45.2729 31.6223 45.914 32.0762 46.3774 32.6602C46.8407 33.2441 47.193 34.0059 47.4342 34.9453L45.768 35.4023C45.5585 34.6914 45.2983 34.1328 44.9872 33.7266C44.6762 33.3203 44.2319 32.9966 43.6542 32.7554C43.0766 32.5078 42.4355 32.384 41.7309 32.384C40.8866 32.384 40.1567 32.5142 39.5409 32.7744C38.9252 33.0283 38.4269 33.3647 38.0461 33.7837C37.6716 34.2026 37.3796 34.6628 37.1701 35.1643C36.8146 36.0276 36.6369 36.9639 36.6369 37.9731C36.6369 39.2173 36.8495 40.2583 37.2748 41.0962C37.7065 41.9341 38.3317 42.5562 39.1506 42.9624C39.9694 43.3687 40.839 43.5718 41.7594 43.5718C42.5592 43.5718 43.34 43.4194 44.1017 43.1147C44.8634 42.8037 45.4411 42.4736 45.8346 42.1245V39.5251H41.7309Z" fill="white"/>
</svg>
