<svg width="151" height="56" viewBox="0 0 151 56" fill="none" xmlns="http://www.w3.org/2000/svg">
<path d="M0.613281 26.1818L141.218 26.1818C138.189 24.834 135.03 23.054 132.143 20.795C126.19 16.136 121.27 9.32646 121.27 9.83898e-06L124.091 9.71225e-06C124.091 8.1281 128.34 14.1671 133.849 18.4777C139.377 22.8037 146.046 25.2754 150.472 26.2115L150.296 28L150.472 29.7885C146.046 30.7246 139.377 33.1963 133.849 37.5223C128.34 41.8329 124.091 47.8719 124.091 56L121.27 56C121.27 46.6735 126.19 39.864 132.143 35.205C135.03 32.946 138.189 31.166 141.218 29.8182L0.613281 29.8182L0.613281 26.1818Z" fill="#FFFCEB"/>
</svg>
