<svg width="78" height="30" viewBox="0 0 78 30" fill="none" xmlns="http://www.w3.org/2000/svg">
<path d="M0.550781 14.1649L72.3268 14.1649C70.7804 13.4717 69.1678 12.5563 67.6942 11.3945C64.6551 8.99844 62.1436 5.4964 62.1436 0.699938L63.5838 0.699938C63.5838 4.8801 65.7531 7.98585 68.565 10.2028C71.3868 12.4276 74.7915 13.6987 77.0508 14.1801L76.9609 15.0999L77.0508 16.0197C74.7915 16.5011 71.3868 17.7723 68.565 19.9971C65.7531 22.214 63.5838 25.3198 63.5838 29.4999L62.1436 29.4999C62.1436 24.7035 64.6551 21.2014 67.6942 18.8054C69.1678 17.6436 70.7804 16.7282 72.3268 16.035L0.550781 16.035L0.550781 14.1649Z" fill="#FFFCEB"/>
</svg>
