<svg width="75" height="75" viewBox="0 0 75 75" fill="none" xmlns="http://www.w3.org/2000/svg">
<circle cx="37.5" cy="37.5" r="36.5" fill="#FFFCEB" fill-opacity="0.2" stroke="white" stroke-width="2"/>
<g clip-path="url(#clip0_832_1362)">
<path d="M20.75 45.9C20.25 45.67 19.83 45.32 19.5 44.85C19.17 44.39 19 43.85 19 43.25V27.15C19 26.79 19.08 26.49 19.23 26.26C19.38 26.02 19.63 25.8 20 25.6L35.25 18L50.15 25.6C50.38 25.73 50.59 25.95 50.77 26.25C50.95 26.55 51.08 26.87 51.15 27.2H49.4L35.25 19.95L20.75 27.2V45.9ZM29.45 53.2C28.51 53.2 27.72 52.88 27.07 52.23C26.42 51.59 26.1 50.8 26.1 49.85V34.2C26.1 33.25 26.42 32.46 27.07 31.82C27.72 31.18 28.51 30.85 29.45 30.85H53.1C54.02 30.85 54.81 31.17 55.47 31.82C56.12 32.46 56.45 33.26 56.45 34.2V49.85C56.45 50.8 56.12 51.59 55.47 52.23C54.82 52.87 54.03 53.2 53.1 53.2H29.45ZM41.3 41.45L27.85 34.55V49.85C27.85 50.32 28 50.7 28.3 51C28.6 51.3 28.98 51.45 29.45 51.45H53.1C53.57 51.45 53.95 51.3 54.25 51C54.55 50.7 54.7 50.32 54.7 49.85V34.55L41.3 41.45ZM41.3 39.45L53.9 32.9C53.77 32.8 53.62 32.72 53.45 32.67C53.28 32.62 53.1 32.6 52.9 32.6H29.65C29.48 32.6 29.31 32.62 29.12 32.67C28.94 32.72 28.78 32.79 28.65 32.9L41.3 39.45ZM54.7 33.6C54.7 33.43 54.64 33.29 54.53 33.17C54.42 33.05 54.27 32.97 54.11 32.9C53.94 32.8 53.75 32.72 53.53 32.67C53.31 32.62 53.11 32.6 52.91 32.6H29.65C29.48 32.6 29.28 32.62 29.05 32.67C28.82 32.72 28.62 32.79 28.45 32.9C28.28 32.97 28.14 33.06 28.03 33.17C27.91 33.28 27.85 33.43 27.85 33.6V32.6H54.7V33.6Z" fill="white"/>
</g>
<defs>
<clipPath id="clip0_832_1362">
<rect width="37.45" height="35.2" fill="white" transform="translate(19 18)"/>
</clipPath>
</defs>
</svg>
